<svg width="1048" height="196" viewBox="0 0 1048 196" fill="none" xmlns="http://www.w3.org/2000/svg">
<path d="M781.64 195.96C773.57 195.96 765.54 195.65 757.56 194.95C711.02 190.9 670.59 174.12 633.94 143.64C626.92 137.8 620.12 131.57 613.55 125.54C592.52 106.25 572.66 88.03 550.77 87.15C536.17 86.57 520.3 93.9 503.5 101.66C497.84 104.27 491.99 106.98 485.99 109.47C474.31 114.33 456.29 120.13 436.8 120.21C436.67 120.21 436.54 120.21 436.41 120.21C415.28 120.21 397.06 113.33 383.7 100.32C373.9 90.77 368.36 79.54 363.47 69.64C359.66 61.91 356.05 54.61 352.05 51.98C347.62 49.06 338.42 50.43 330.66 55.15C321.97 60.44 314.06 69.04 305.68 78.14C303.43 80.58 301.11 83.11 298.72 85.62C291.84 92.87 284.46 99.92 276.8 106.58C237.98 140.32 194.26 162.26 143.14 173.64C96.59 184 47.7 184.93 1.56003 184.93H0.530029V134.93C44.18 134.9 90.3401 134.17 132.28 124.84C175.67 115.18 211.17 97.39 244.01 68.85C250.48 63.23 256.69 57.29 262.48 51.2C264.59 48.97 266.69 46.7 268.9 44.29C278.77 33.56 289.96 21.41 304.67 12.45C329.36 -2.58 358.74 -3.46 379.53 10.21C394.88 20.31 402.33 35.4 408.31 47.52C411.72 54.43 414.94 60.95 418.6 64.52C428.59 74.26 450.81 69.96 466.79 63.31C471.9 61.19 477.06 58.8 482.53 56.28C502.97 46.84 526.14 36.15 552.77 37.21C592.97 38.82 621.86 65.33 647.35 88.72C653.77 94.6 659.82 100.16 665.91 105.22C727.25 156.23 788.3 150.34 874.43 135.53C932.11 125.61 952.69 126.95 983.83 128.99C1000.03 130.05 1018.39 131.25 1047.37 131.25V181.25C1016.76 181.25 996.7 179.94 980.57 178.89C951.03 176.96 934.76 175.9 882.9 184.82C848.45 190.74 814.66 195.99 781.64 195.99V195.96Z" fill="black"/>
</svg>
