<svg width="189" height="196" viewBox="0 0 189 196" fill="none" xmlns="http://www.w3.org/2000/svg">
<path d="M181.405 132.413C188.285 143.003 190.505 156.093 187.335 167.433C183.905 179.703 174.235 189.383 162.705 192.103C160.435 192.633 158.095 192.903 155.735 192.903C145.425 192.903 134.615 187.933 126.765 179.233C121.795 173.733 118.505 167.813 115.695 159.213C105.645 176.033 89.285 189.533 70.125 194.333C54.405 198.283 37.005 195.123 23.735 185.793C10.365 176.273 3.54502 159.053 5.41502 142.933C7.44502 125.373 18.825 109.053 34.975 101.673C37.795 100.343 40.715 99.2927 43.635 98.3127C36.515 98.4327 29.425 97.1027 22.845 93.9027C4.88501 85.4727 -2.19497 67.6327 0.585034 48.6227C2.61503 35.5527 8.41501 22.8027 18.095 13.6027C27.195 4.81269 41.025 0.722692 53.205 4.98269C65.235 9.05269 71.585 21.2827 71.585 33.4427C77.865 25.9727 83.005 19.9727 91.135 13.9427C104.175 4.26269 118.625 -0.667308 131.825 0.0726916C147.425 0.952692 161.535 10.3127 166.935 23.3727C172.765 37.4727 168.575 53.7227 165.205 66.7927C161.505 81.1427 158.375 96.2127 164.145 108.843C166.525 114.043 170.325 118.533 173.995 122.873C176.555 125.893 179.195 129.023 181.395 132.403L181.405 132.413ZM185.395 166.893C188.415 156.103 186.285 143.623 179.715 133.513C177.585 130.233 174.985 127.153 172.465 124.183C168.705 119.733 164.815 115.133 162.325 109.683C156.275 96.4527 159.475 80.9927 163.265 66.3027C166.565 53.5227 170.655 37.6327 165.085 24.1527C159.975 11.7927 146.565 2.93269 131.715 2.09269C118.995 1.37269 105.005 6.16269 92.335 15.5727C84.105 21.6827 78.955 27.8127 72.445 35.5727L71.445 36.7627C70.375 48.7727 63.535 59.5927 55.095 67.9027C61.975 58.9127 68.045 48.9227 69.345 37.5227C70.325 28.0627 67.485 17.7027 60.045 11.4327C53.245 5.65269 43.505 4.49269 35.035 6.73269C23.365 9.73269 14.515 19.2827 9.22502 29.8127C3.88502 40.4527 1.16501 52.7827 3.18501 64.6127C7.42501 90.5827 35.545 101.393 58.855 93.7127C70.475 90.2027 80.655 83.1427 89.445 74.8627C93.875 70.6927 97.985 66.1727 101.975 61.5227C95.145 71.7427 86.625 81.0027 76.265 87.7727C68.605 92.8427 59.645 96.4427 50.455 97.7727C39.665 101.443 30.205 104.563 21.975 113.123C1.12502 133.893 2.08503 170.793 28.615 186.233C43.365 194.803 61.915 196.103 77.695 189.593C96.075 182.193 111.365 166.713 118.795 148.363C124.085 135.053 125.555 120.453 123.185 106.213C127.975 122.923 125.355 141.593 117.055 156.863C119.905 166.133 123.165 172.263 128.255 177.893C137.425 188.053 150.765 192.863 162.245 190.153C172.915 187.633 182.215 178.293 185.405 166.893H185.395Z" fill="black"/>
<path d="M55.8751 162.003C66.8151 144.223 79.1651 132.873 79.1651 132.873C77.2351 133.423 75.6451 133.673 74.3251 133.673C61.6051 133.673 75.4151 110.243 76.0251 109.223C63.4151 129.183 53.2051 132.473 50.9251 132.983C50.7751 133.013 50.6351 133.033 50.4751 133.063C50.5351 133.063 50.6851 133.033 50.9251 132.983C52.5351 132.703 53.9551 132.573 55.2151 132.573C73.0951 132.573 57.8151 158.793 55.8751 162.003ZM179.715 133.503C186.285 143.613 188.415 156.093 185.395 166.883C182.215 178.273 172.905 187.623 162.235 190.143C150.765 192.853 137.415 188.043 128.245 177.883C123.155 172.243 119.895 166.123 117.045 156.853C125.345 141.583 127.965 122.913 123.175 106.203C125.545 120.453 124.075 135.043 118.785 148.353C111.365 166.713 96.0751 182.183 77.6851 189.583C61.9051 196.103 43.3551 194.793 28.6051 186.223C2.07508 170.783 1.11507 133.883 21.9651 113.113C30.1951 104.553 39.6551 101.433 50.4451 97.7627C59.6351 96.4327 68.5951 92.8327 76.2551 87.7627C86.6151 80.9927 95.1351 71.7227 101.965 61.5127C97.9751 66.1627 93.8651 70.6827 89.4351 74.8527C80.6551 83.1327 70.4651 90.2027 58.8451 93.7027C35.5351 101.383 7.41509 90.5627 3.17509 64.6027C1.15509 52.7727 3.87507 40.4327 9.21507 29.8027C14.5051 19.2727 23.3551 9.72265 35.0251 6.72265C43.5051 4.48265 53.2351 5.65265 60.0351 11.4227C67.4751 17.6927 70.3151 28.0527 69.3351 37.5127C68.0451 48.9027 61.9651 58.9027 55.0851 67.8927C63.5251 59.5827 70.3651 48.7727 71.4351 36.7527L72.4351 35.5627C78.9551 27.8027 84.0951 21.6727 92.3251 15.5627C104.995 6.15265 118.975 1.36265 131.705 2.08265C146.555 2.92265 159.965 11.7827 165.075 24.1427C170.645 37.6227 166.555 53.5127 163.255 66.2927C159.465 80.9927 156.275 96.4527 162.315 109.673C164.805 115.133 168.695 119.723 172.455 124.173C174.975 127.153 177.575 130.223 179.705 133.503H179.715Z" fill="#31BF62"/>
<path d="M74.315 133.673C75.635 133.673 77.225 133.423 79.155 132.873C79.155 132.873 66.8151 144.223 55.8651 162.003C57.8051 158.793 73.085 132.573 55.205 132.573C53.945 132.573 52.515 132.703 50.915 132.983C53.195 132.473 63.405 129.183 76.015 109.223C75.405 110.243 61.595 133.673 74.315 133.673ZM65.245 145.223C68.445 141.223 71.345 137.983 73.545 135.653C70.295 135.433 68.695 133.813 67.925 132.443C66.775 130.393 66.635 127.553 67.515 123.823C64.475 127.103 61.7051 129.433 59.3351 131.083C61.6951 131.753 63.435 133.073 64.545 135.043C65.945 137.523 66.175 140.943 65.245 145.233V145.223Z" fill="black"/>
<path d="M50.475 133.063C50.625 133.033 50.775 133.013 50.925 132.983C50.695 133.033 50.535 133.053 50.475 133.063Z" fill="#31BF62"/>
</svg>
